<svg xmlns="http://www.w3.org/2000/svg" xmlns:xlink="http://www.w3.org/1999/xlink" width="500" zoomAndPan="magnify" viewBox="0 0 375 374.999991" height="500" preserveAspectRatio="xMidYMid meet" version="1.0"><defs><g/><clipPath id="c2ba49d18b"><path d="M 70.152344 48.238281 L 323.652344 48.238281 L 323.652344 311.488281 L 70.152344 311.488281 Z M 70.152344 48.238281 " clip-rule="nonzero"/></clipPath></defs><rect x="-37.5" width="450" fill="#ffffff" y="-37.499999" height="449.999989" fill-opacity="1"/><rect x="-37.5" width="450" fill="#2f7bff" y="-37.499999" height="449.999989" fill-opacity="1"/><g clip-path="url(#c2ba49d18b)"><path fill="#ffffff" d="M 146.46875 85.003906 C 124.792969 84.945312 107.183594 102.5625 107.183594 124.222656 L 107.183594 311.554688 L 70.390625 311.554688 L 70.390625 124.222656 C 70.390625 113.976562 72.367188 104.019531 76.332031 94.640625 C 80.164062 85.589844 85.597656 77.464844 92.570312 70.492188 C 99.539062 63.523438 107.667969 58.042969 116.714844 54.21875 C 126.097656 50.253906 136.050781 48.238281 146.304688 48.238281 C 156.558594 48.238281 166.507812 50.253906 175.886719 54.21875 C 184.9375 58.046875 193.070312 63.523438 200.039062 70.492188 C 207.011719 77.464844 212.496094 85.589844 216.324219 94.640625 C 220.292969 104.019531 222.320312 113.976562 222.320312 124.222656 L 222.320312 217.3125 L 244.347656 217.3125 C 254.496094 217.3125 262.730469 225.550781 262.730469 235.707031 C 262.730469 245.859375 254.5 254.105469 244.347656 254.105469 L 185.527344 254.105469 L 185.527344 124.601562 C 185.527344 102.925781 168.144531 85.066406 146.46875 85.003906 Z M 317.042969 205.917969 C 313.210938 196.871094 307.738281 188.742188 300.765625 181.773438 C 293.796875 174.800781 285.667969 169.382812 276.621094 165.550781 C 267.238281 161.585938 257.285156 159.628906 247.035156 159.628906 L 243.207031 159.628906 L 243.207031 196.414062 L 247.035156 196.414062 C 268.699219 196.414062 286.3125 214.023438 286.253906 235.695312 C 286.195312 257.375 268.335938 274.757812 246.65625 274.757812 L 164.863281 274.757812 L 164.863281 125.203125 C 164.863281 115.054688 156.621094 106.820312 146.46875 106.820312 C 136.3125 106.820312 128.070312 115.050781 128.070312 125.203125 L 128.070312 311.5625 L 247.035156 311.5625 C 257.285156 311.5625 267.238281 309.515625 276.621094 305.542969 C 285.667969 301.714844 293.796875 296.222656 300.765625 289.246094 C 307.738281 282.277344 313.21875 274.144531 317.042969 265.089844 C 321.007812 255.710938 323.019531 245.753906 323.019531 235.5 C 323.019531 225.25 321.011719 215.300781 317.042969 205.917969 Z M 317.042969 205.917969 " fill-opacity="1" fill-rule="nonzero"/></g><g fill="#2f7bff" fill-opacity="1"><g transform="translate(304.620923, 103.98991)"><g><path d="M 4.46875 0 L 0 -11.78125 L 1.90625 -11.78125 L 4.453125 -4.796875 C 5.023438 -3.160156 5.359375 -2.097656 5.453125 -1.609375 L 5.546875 -1.609375 C 5.617188 -1.992188 5.863281 -2.78125 6.28125 -3.96875 C 6.707031 -5.164062 7.648438 -7.769531 9.109375 -11.78125 L 11.015625 -11.78125 L 6.546875 0 Z M 4.46875 0 "/></g></g></g><g fill="#2f7bff" fill-opacity="1"><g transform="translate(315.64045, 103.98991)"><g><path d="M 4.734375 -6.03125 L 0.640625 -11.78125 L 2.671875 -11.78125 L 5.765625 -7.265625 L 8.859375 -11.78125 L 10.875 -11.78125 L 6.78125 -6.03125 L 11.09375 0 L 9.0625 0 L 5.765625 -4.765625 L 2.4375 0 L 0.421875 0 Z M 4.734375 -6.03125 "/></g></g></g><g fill="#2f7bff" fill-opacity="1"><g transform="translate(327.164775, 103.98991)"><g><path d="M 6.59375 0.21875 C 4.894531 0.21875 3.578125 -0.304688 2.640625 -1.359375 C 1.703125 -2.410156 1.234375 -3.894531 1.234375 -5.8125 C 1.234375 -7.78125 1.707031 -9.300781 2.65625 -10.375 C 3.601562 -11.445312 4.957031 -11.984375 6.71875 -11.984375 C 7.28125 -11.984375 7.84375 -11.921875 8.40625 -11.796875 C 8.976562 -11.679688 9.425781 -11.539062 9.75 -11.375 L 9.203125 -9.859375 C 8.804688 -10.015625 8.375 -10.144531 7.90625 -10.25 C 7.4375 -10.351562 7.023438 -10.40625 6.671875 -10.40625 C 4.273438 -10.40625 3.078125 -8.878906 3.078125 -5.828125 C 3.078125 -4.378906 3.367188 -3.269531 3.953125 -2.5 C 4.535156 -1.726562 5.398438 -1.34375 6.546875 -1.34375 C 7.535156 -1.34375 8.546875 -1.554688 9.578125 -1.984375 L 9.578125 -0.390625 C 8.785156 0.0117188 7.789062 0.21875 6.59375 0.21875 Z M 6.59375 0.21875 "/></g></g></g><g fill="#2f7bff" fill-opacity="1"><g transform="translate(337.636553, 103.98991)"><g><path d="M 4.734375 -6.03125 L 0.640625 -11.78125 L 2.671875 -11.78125 L 5.765625 -7.265625 L 8.859375 -11.78125 L 10.875 -11.78125 L 6.78125 -6.03125 L 11.09375 0 L 9.0625 0 L 5.765625 -4.765625 L 2.4375 0 L 0.421875 0 Z M 4.734375 -6.03125 "/></g></g></g></svg>