<svg xmlns="http://www.w3.org/2000/svg" xmlns:xlink="http://www.w3.org/1999/xlink" width="500" zoomAndPan="magnify" viewBox="0 0 375 374.999991" height="500" preserveAspectRatio="xMidYMid meet" version="1.0"><defs><g/><clipPath id="301a0fe939"><path d="M 70.152344 48.238281 L 323.652344 48.238281 L 323.652344 311.488281 L 70.152344 311.488281 Z M 70.152344 48.238281 " clip-rule="nonzero"/></clipPath></defs><rect x="-37.5" width="450" fill="#ffffff" y="-37.499999" height="449.999989" fill-opacity="1"/><rect x="-37.5" width="450" fill="#ff5400" y="-37.499999" height="449.999989" fill-opacity="1"/><g clip-path="url(#301a0fe939)"><path fill="#ffffff" d="M 146.46875 85.003906 C 124.792969 84.945312 107.183594 102.5625 107.183594 124.222656 L 107.183594 311.554688 L 70.390625 311.554688 L 70.390625 124.222656 C 70.390625 113.976562 72.367188 104.019531 76.332031 94.640625 C 80.164062 85.589844 85.597656 77.464844 92.570312 70.492188 C 99.539062 63.523438 107.667969 58.042969 116.714844 54.21875 C 126.097656 50.253906 136.050781 48.238281 146.304688 48.238281 C 156.558594 48.238281 166.507812 50.253906 175.886719 54.21875 C 184.9375 58.046875 193.070312 63.523438 200.039062 70.492188 C 207.011719 77.464844 212.496094 85.589844 216.324219 94.640625 C 220.292969 104.019531 222.320312 113.976562 222.320312 124.222656 L 222.320312 217.3125 L 244.347656 217.3125 C 254.496094 217.3125 262.730469 225.550781 262.730469 235.707031 C 262.730469 245.859375 254.5 254.105469 244.347656 254.105469 L 185.527344 254.105469 L 185.527344 124.601562 C 185.527344 102.925781 168.144531 85.066406 146.46875 85.003906 Z M 317.042969 205.917969 C 313.210938 196.871094 307.738281 188.742188 300.765625 181.773438 C 293.796875 174.800781 285.667969 169.382812 276.621094 165.550781 C 267.238281 161.585938 257.285156 159.628906 247.035156 159.628906 L 243.207031 159.628906 L 243.207031 196.414062 L 247.035156 196.414062 C 268.699219 196.414062 286.3125 214.023438 286.253906 235.695312 C 286.195312 257.375 268.335938 274.757812 246.65625 274.757812 L 164.863281 274.757812 L 164.863281 125.203125 C 164.863281 115.054688 156.621094 106.820312 146.46875 106.820312 C 136.3125 106.820312 128.070312 115.050781 128.070312 125.203125 L 128.070312 311.5625 L 247.035156 311.5625 C 257.285156 311.5625 267.238281 309.515625 276.621094 305.542969 C 285.667969 301.714844 293.796875 296.222656 300.765625 289.246094 C 307.738281 282.277344 313.21875 274.144531 317.042969 265.089844 C 321.007812 255.710938 323.019531 245.753906 323.019531 235.5 C 323.019531 225.25 321.011719 215.300781 317.042969 205.917969 Z M 317.042969 205.917969 " fill-opacity="1" fill-rule="nonzero"/></g><g fill="#ff5400" fill-opacity="1"><g transform="translate(300.51892, 61.257348)"><g><path d="M 4.578125 0 L 0 -12.015625 L 3.421875 -12.015625 L 5.75 -5.171875 C 6.007812 -4.304688 6.171875 -3.484375 6.234375 -2.703125 L 6.296875 -2.703125 C 6.328125 -3.390625 6.488281 -4.210938 6.78125 -5.171875 L 9.09375 -12.015625 L 12.515625 -12.015625 L 7.9375 0 Z M 4.578125 0 "/></g></g></g><g fill="#ff5400" fill-opacity="1"><g transform="translate(313.031351, 61.257348)"><g><path d="M 4.171875 -6.140625 L 0.3125 -12.015625 L 4.03125 -12.015625 L 6.359375 -8.1875 L 8.71875 -12.015625 L 12.421875 -12.015625 L 8.515625 -6.140625 L 12.609375 0 L 8.890625 0 L 6.359375 -4.109375 L 3.828125 0 L 0.109375 0 Z M 4.171875 -6.140625 "/></g></g></g><g fill="#ff5400" fill-opacity="1"><g transform="translate(325.747842, 61.257348)"><g><path d="M 6.59375 0.21875 C 2.851562 0.21875 0.984375 -1.832031 0.984375 -5.9375 C 0.984375 -7.976562 1.492188 -9.535156 2.515625 -10.609375 C 3.535156 -11.691406 4.992188 -12.234375 6.890625 -12.234375 C 8.273438 -12.234375 9.519531 -11.960938 10.625 -11.421875 L 9.65625 -8.890625 C 9.144531 -9.097656 8.664062 -9.265625 8.21875 -9.390625 C 7.769531 -9.523438 7.328125 -9.59375 6.890625 -9.59375 C 5.179688 -9.59375 4.328125 -8.382812 4.328125 -5.96875 C 4.328125 -3.613281 5.179688 -2.4375 6.890625 -2.4375 C 7.515625 -2.4375 8.09375 -2.519531 8.625 -2.6875 C 9.164062 -2.851562 9.707031 -3.117188 10.25 -3.484375 L 10.25 -0.671875 C 9.71875 -0.335938 9.179688 -0.109375 8.640625 0.015625 C 8.097656 0.148438 7.414062 0.21875 6.59375 0.21875 Z M 6.59375 0.21875 "/></g></g></g><g fill="#ff5400" fill-opacity="1"><g transform="translate(337.057362, 61.257348)"><g><path d="M 4.171875 -6.140625 L 0.3125 -12.015625 L 4.03125 -12.015625 L 6.359375 -8.1875 L 8.71875 -12.015625 L 12.421875 -12.015625 L 8.515625 -6.140625 L 12.609375 0 L 8.890625 0 L 6.359375 -4.109375 L 3.828125 0 L 0.109375 0 Z M 4.171875 -6.140625 "/></g></g></g></svg>