<svg xmlns="http://www.w3.org/2000/svg" xmlns:xlink="http://www.w3.org/1999/xlink" width="150" zoomAndPan="magnify" viewBox="0 0 112.5 30.000001" height="40" preserveAspectRatio="xMidYMid meet" version="1.0"><defs><g/><clipPath id="afbfcb3581"><path d="M 1.574219 0 L 110.445312 0 L 110.445312 29.03125 L 1.574219 29.03125 Z M 1.574219 0 " clip-rule="nonzero"/></clipPath><clipPath id="64d4cc7273"><path d="M 29 2 L 105 2 L 105 29.03125 L 29 29.03125 Z M 29 2 " clip-rule="nonzero"/></clipPath><clipPath id="db24a59fca"><rect x="0" width="76" y="0" height="28"/></clipPath><clipPath id="6c974c7a43"><path d="M 4.476562 2.746094 L 26.976562 2.746094 L 26.976562 25.96875 L 4.476562 25.96875 Z M 4.476562 2.746094 " clip-rule="nonzero"/></clipPath></defs><g clip-path="url(#afbfcb3581)"><path fill="#ffffff" d="M 1.574219 0 L 110.445312 0 L 110.445312 29.03125 L 1.574219 29.03125 Z M 1.574219 0 " fill-opacity="1" fill-rule="nonzero"/><path fill="#ffffff" d="M 1.574219 0 L 110.445312 0 L 110.445312 29.03125 L 1.574219 29.03125 Z M 1.574219 0 " fill-opacity="1" fill-rule="nonzero"/></g><g clip-path="url(#64d4cc7273)"><g transform="matrix(1, 0, 0, 1, 29, 2)"><g clip-path="url(#db24a59fca)"><g fill="#000000" fill-opacity="1"><g transform="translate(0.757428, 22.630531)"><g><path d="M 9.359375 -13.109375 C 10.554688 -13.109375 11.644531 -12.832031 12.625 -12.28125 C 13.613281 -11.726562 14.390625 -10.953125 14.953125 -9.953125 C 15.515625 -8.953125 15.796875 -7.785156 15.796875 -6.453125 C 15.796875 -5.128906 15.515625 -3.96875 14.953125 -2.96875 C 14.390625 -1.96875 13.613281 -1.191406 12.625 -0.640625 C 11.644531 -0.0859375 10.554688 0.1875 9.359375 0.1875 C 7.585938 0.1875 6.234375 -0.367188 5.296875 -1.484375 L 5.296875 0 L 1.734375 0 L 1.734375 -17.8125 L 5.46875 -17.8125 L 5.46875 -11.546875 C 6.414062 -12.585938 7.710938 -13.109375 9.359375 -13.109375 Z M 8.71875 -2.875 C 9.675781 -2.875 10.460938 -3.195312 11.078125 -3.84375 C 11.691406 -4.5 12 -5.367188 12 -6.453125 C 12 -7.546875 11.691406 -8.414062 11.078125 -9.0625 C 10.460938 -9.707031 9.675781 -10.03125 8.71875 -10.03125 C 7.75 -10.03125 6.957031 -9.707031 6.34375 -9.0625 C 5.726562 -8.414062 5.421875 -7.546875 5.421875 -6.453125 C 5.421875 -5.367188 5.726562 -4.5 6.34375 -3.84375 C 6.957031 -3.195312 7.75 -2.875 8.71875 -2.875 Z M 8.71875 -2.875 "/></g></g></g><g fill="#000000" fill-opacity="1"><g transform="translate(16.595228, 22.630531)"><g><path d="M 1.734375 -12.90625 L 5.46875 -12.90625 L 5.46875 0 L 1.734375 0 Z M 3.59375 -14.71875 C 2.90625 -14.71875 2.34375 -14.914062 1.90625 -15.3125 C 1.476562 -15.707031 1.265625 -16.203125 1.265625 -16.796875 C 1.265625 -17.390625 1.476562 -17.882812 1.90625 -18.28125 C 2.34375 -18.6875 2.90625 -18.890625 3.59375 -18.890625 C 4.28125 -18.890625 4.835938 -18.695312 5.265625 -18.3125 C 5.703125 -17.925781 5.921875 -17.445312 5.921875 -16.875 C 5.921875 -16.25 5.703125 -15.734375 5.265625 -15.328125 C 4.835938 -14.921875 4.28125 -14.71875 3.59375 -14.71875 Z M 3.59375 -14.71875 "/></g></g></g><g fill="#000000" fill-opacity="1"><g transform="translate(23.098248, 22.630531)"><g><path d="M 6.078125 0.1875 C 5.003906 0.1875 3.953125 0.0546875 2.921875 -0.203125 C 1.898438 -0.460938 1.085938 -0.796875 0.484375 -1.203125 L 1.734375 -3.890625 C 2.304688 -3.523438 3 -3.222656 3.8125 -2.984375 C 4.632812 -2.753906 5.4375 -2.640625 6.21875 -2.640625 C 7.800781 -2.640625 8.59375 -3.03125 8.59375 -3.8125 C 8.59375 -4.1875 8.375 -4.453125 7.9375 -4.609375 C 7.507812 -4.765625 6.847656 -4.898438 5.953125 -5.015625 C 4.898438 -5.171875 4.023438 -5.351562 3.328125 -5.5625 C 2.640625 -5.769531 2.046875 -6.140625 1.546875 -6.671875 C 1.046875 -7.203125 0.796875 -7.953125 0.796875 -8.921875 C 0.796875 -9.742188 1.03125 -10.46875 1.5 -11.09375 C 1.96875 -11.726562 2.65625 -12.222656 3.5625 -12.578125 C 4.46875 -12.929688 5.535156 -13.109375 6.765625 -13.109375 C 7.679688 -13.109375 8.585938 -13.003906 9.484375 -12.796875 C 10.390625 -12.597656 11.140625 -12.320312 11.734375 -11.96875 L 10.484375 -9.3125 C 9.347656 -9.945312 8.109375 -10.265625 6.765625 -10.265625 C 5.960938 -10.265625 5.363281 -10.148438 4.96875 -9.921875 C 4.570312 -9.703125 4.375 -9.421875 4.375 -9.078125 C 4.375 -8.671875 4.585938 -8.382812 5.015625 -8.21875 C 5.441406 -8.0625 6.128906 -7.914062 7.078125 -7.78125 C 8.128906 -7.601562 8.992188 -7.410156 9.671875 -7.203125 C 10.347656 -7.003906 10.929688 -6.640625 11.421875 -6.109375 C 11.921875 -5.585938 12.171875 -4.851562 12.171875 -3.90625 C 12.171875 -3.113281 11.929688 -2.40625 11.453125 -1.78125 C 10.972656 -1.15625 10.269531 -0.671875 9.34375 -0.328125 C 8.425781 0.0117188 7.335938 0.1875 6.078125 0.1875 Z M 6.078125 0.1875 "/></g></g></g><g fill="#000000" fill-opacity="1"><g transform="translate(35.120547, 22.630531)"><g><path d="M 18.265625 -13.109375 C 19.878906 -13.109375 21.160156 -12.628906 22.109375 -11.671875 C 23.066406 -10.722656 23.546875 -9.296875 23.546875 -7.390625 L 23.546875 0 L 19.796875 0 L 19.796875 -6.8125 C 19.796875 -7.84375 19.582031 -8.609375 19.15625 -9.109375 C 18.738281 -9.609375 18.140625 -9.859375 17.359375 -9.859375 C 16.472656 -9.859375 15.773438 -9.570312 15.265625 -9 C 14.753906 -8.4375 14.5 -7.597656 14.5 -6.484375 L 14.5 0 L 10.75 0 L 10.75 -6.8125 C 10.75 -8.84375 9.929688 -9.859375 8.296875 -9.859375 C 7.441406 -9.859375 6.753906 -9.570312 6.234375 -9 C 5.722656 -8.4375 5.46875 -7.597656 5.46875 -6.484375 L 5.46875 0 L 1.734375 0 L 1.734375 -12.90625 L 5.296875 -12.90625 L 5.296875 -11.421875 C 5.785156 -11.960938 6.375 -12.378906 7.0625 -12.671875 C 7.757812 -12.960938 8.523438 -13.109375 9.359375 -13.109375 C 10.273438 -13.109375 11.097656 -12.925781 11.828125 -12.5625 C 12.566406 -12.207031 13.160156 -11.679688 13.609375 -10.984375 C 14.140625 -11.660156 14.804688 -12.179688 15.609375 -12.546875 C 16.421875 -12.921875 17.304688 -13.109375 18.265625 -13.109375 Z M 18.265625 -13.109375 "/></g></g></g><g fill="#000000" fill-opacity="1"><g transform="translate(59.717206, 22.630531)"><g><path d="M 14.375 -6.40625 C 14.375 -6.363281 14.347656 -6.03125 14.296875 -5.40625 L 4.53125 -5.40625 C 4.707031 -4.601562 5.125 -3.96875 5.78125 -3.5 C 6.4375 -3.039062 7.253906 -2.8125 8.234375 -2.8125 C 8.898438 -2.8125 9.492188 -2.910156 10.015625 -3.109375 C 10.535156 -3.304688 11.019531 -3.625 11.46875 -4.0625 L 13.46875 -1.890625 C 12.25 -0.503906 10.472656 0.1875 8.140625 0.1875 C 6.679688 0.1875 5.390625 -0.09375 4.265625 -0.65625 C 3.148438 -1.226562 2.285156 -2.015625 1.671875 -3.015625 C 1.066406 -4.023438 0.765625 -5.171875 0.765625 -6.453125 C 0.765625 -7.722656 1.0625 -8.863281 1.65625 -9.875 C 2.257812 -10.894531 3.085938 -11.6875 4.140625 -12.25 C 5.191406 -12.820312 6.363281 -13.109375 7.65625 -13.109375 C 8.914062 -13.109375 10.054688 -12.832031 11.078125 -12.28125 C 12.109375 -11.738281 12.914062 -10.957031 13.5 -9.9375 C 14.082031 -8.925781 14.375 -7.75 14.375 -6.40625 Z M 7.6875 -10.265625 C 6.832031 -10.265625 6.117188 -10.023438 5.546875 -9.546875 C 4.972656 -9.066406 4.617188 -8.410156 4.484375 -7.578125 L 10.84375 -7.578125 C 10.71875 -8.398438 10.363281 -9.050781 9.78125 -9.53125 C 9.207031 -10.019531 8.507812 -10.265625 7.6875 -10.265625 Z M 7.6875 -10.265625 "/></g></g></g></g></g></g><g clip-path="url(#6c974c7a43)"><path fill="#ff5400" d="M 11.246094 6.007812 C 9.320312 6.003906 7.757812 7.566406 7.757812 9.492188 L 7.757812 26.128906 L 4.492188 26.128906 L 4.492188 9.492188 C 4.492188 8.582031 4.667969 7.699219 5.019531 6.863281 C 5.359375 6.0625 5.839844 5.339844 6.460938 4.71875 C 7.078125 4.101562 7.800781 3.613281 8.605469 3.273438 C 9.4375 2.921875 10.320312 2.746094 11.230469 2.746094 C 12.144531 2.746094 13.027344 2.921875 13.859375 3.273438 C 14.664062 3.613281 15.386719 4.101562 16.003906 4.71875 C 16.625 5.339844 17.109375 6.0625 17.449219 6.863281 C 17.800781 7.699219 17.984375 8.582031 17.984375 9.492188 L 17.984375 17.757812 L 19.9375 17.757812 C 20.839844 17.757812 21.570312 18.488281 21.570312 19.390625 C 21.570312 20.292969 20.839844 21.027344 19.9375 21.027344 L 14.714844 21.027344 L 14.714844 9.527344 C 14.714844 7.601562 13.171875 6.015625 11.246094 6.007812 Z M 26.394531 16.746094 C 26.054688 15.941406 25.566406 15.222656 24.949219 14.601562 C 24.328125 13.984375 23.609375 13.5 22.804688 13.160156 C 21.972656 12.808594 21.085938 12.636719 20.175781 12.636719 L 19.835938 12.636719 L 19.835938 15.902344 L 20.175781 15.902344 C 22.101562 15.902344 23.664062 17.464844 23.660156 19.390625 C 23.65625 21.316406 22.070312 22.859375 20.144531 22.859375 L 12.878906 22.859375 L 12.878906 9.578125 C 12.878906 8.675781 12.148438 7.945312 11.246094 7.945312 C 10.34375 7.945312 9.613281 8.675781 9.613281 9.578125 L 9.613281 26.128906 L 20.175781 26.128906 C 21.085938 26.128906 21.972656 25.945312 22.804688 25.59375 C 23.609375 25.253906 24.328125 24.765625 24.949219 24.144531 C 25.566406 23.527344 26.054688 22.804688 26.394531 22 C 26.746094 21.167969 26.925781 20.285156 26.925781 19.375 C 26.925781 18.464844 26.746094 17.578125 26.394531 16.746094 Z M 26.394531 16.746094 " fill-opacity="1" fill-rule="nonzero"/></g></svg>