<svg xmlns="http://www.w3.org/2000/svg" xmlns:xlink="http://www.w3.org/1999/xlink" width="130" zoomAndPan="magnify" viewBox="0 0 97.5 30.000001" height="40" preserveAspectRatio="xMidYMid meet" version="1.0"><defs><g/><clipPath id="82a88d86d2"><path d="M 1.332031 0 L 95.683594 0 L 95.683594 29.03125 L 1.332031 29.03125 Z M 1.332031 0 " clip-rule="nonzero"/></clipPath><clipPath id="ead0e6d1cd"><path d="M 3.816406 6.195312 L 23.414062 6.195312 L 23.414062 26.519531 L 3.816406 26.519531 Z M 3.816406 6.195312 " clip-rule="nonzero"/></clipPath><clipPath id="ff17ebd700"><path d="M 25 5 L 91 5 L 91 29.03125 L 25 29.03125 Z M 25 5 " clip-rule="nonzero"/></clipPath><clipPath id="6f5ebc640e"><path d="M 53 8 L 65.980469 8 L 65.980469 21 L 53 21 Z M 53 8 " clip-rule="nonzero"/></clipPath><clipPath id="9edf71e769"><rect x="0" width="66" y="0" height="25"/></clipPath></defs><g clip-path="url(#82a88d86d2)"><path fill="#ffffff" d="M 1.332031 0 L 95.683594 0 L 95.683594 29.03125 L 1.332031 29.03125 Z M 1.332031 0 " fill-opacity="1" fill-rule="nonzero"/><path fill="#ffffff" d="M 1.332031 0 L 95.683594 0 L 95.683594 29.03125 L 1.332031 29.03125 Z M 1.332031 0 " fill-opacity="1" fill-rule="nonzero"/></g><g clip-path="url(#ead0e6d1cd)"><path fill="#5690f5" d="M 9.683594 9.023438 C 8.015625 9.019531 6.660156 10.375 6.660156 12.042969 L 6.660156 26.460938 L 3.832031 26.460938 L 3.832031 12.042969 C 3.832031 11.253906 3.980469 10.488281 4.289062 9.765625 C 4.582031 9.070312 5 8.445312 5.535156 7.90625 C 6.074219 7.371094 6.699219 6.949219 7.394531 6.65625 C 8.117188 6.351562 8.882812 6.195312 9.671875 6.195312 C 10.460938 6.195312 11.226562 6.351562 11.949219 6.65625 C 12.644531 6.949219 13.269531 7.371094 13.808594 7.90625 C 14.34375 8.445312 14.765625 9.070312 15.0625 9.765625 C 15.367188 10.488281 15.523438 11.253906 15.523438 12.042969 L 15.523438 19.207031 L 17.21875 19.207031 C 18 19.207031 18.632812 19.839844 18.632812 20.621094 C 18.632812 21.402344 18 22.039062 17.21875 22.039062 L 12.691406 22.039062 L 12.691406 12.070312 C 12.691406 10.402344 11.351562 9.03125 9.683594 9.023438 Z M 22.8125 18.332031 C 22.519531 17.632812 22.097656 17.007812 21.558594 16.472656 C 21.023438 15.933594 20.398438 15.519531 19.703125 15.222656 C 18.980469 14.917969 18.214844 14.769531 17.425781 14.769531 L 17.128906 14.769531 L 17.128906 17.597656 L 17.425781 17.597656 C 19.09375 17.597656 20.449219 18.953125 20.441406 20.621094 C 20.4375 22.289062 19.0625 23.628906 17.394531 23.628906 L 11.101562 23.628906 L 11.101562 12.117188 C 11.101562 11.335938 10.464844 10.703125 9.683594 10.703125 C 8.902344 10.703125 8.269531 11.335938 8.269531 12.117188 L 8.269531 26.460938 L 17.425781 26.460938 C 18.214844 26.460938 18.980469 26.304688 19.703125 25.996094 C 20.398438 25.703125 21.023438 25.28125 21.558594 24.742188 C 22.097656 24.207031 22.519531 23.582031 22.8125 22.882812 C 23.117188 22.164062 23.273438 21.394531 23.273438 20.605469 C 23.273438 19.816406 23.117188 19.050781 22.8125 18.332031 Z M 22.8125 18.332031 " fill-opacity="1" fill-rule="nonzero"/></g><g clip-path="url(#ff17ebd700)"><g transform="matrix(1, 0, 0, 1, 25, 5)"><g clip-path="url(#9edf71e769)"><g fill="#131313" fill-opacity="1"><g transform="translate(1.565681, 20.225755)"><g><path d="M 8.109375 -11.359375 C 9.148438 -11.359375 10.097656 -11.117188 10.953125 -10.640625 C 11.804688 -10.160156 12.472656 -9.488281 12.953125 -8.625 C 13.441406 -7.757812 13.6875 -6.75 13.6875 -5.59375 C 13.6875 -4.445312 13.441406 -3.4375 12.953125 -2.5625 C 12.472656 -1.695312 11.804688 -1.023438 10.953125 -0.546875 C 10.097656 -0.0664062 9.148438 0.171875 8.109375 0.171875 C 6.566406 0.171875 5.394531 -0.316406 4.59375 -1.296875 L 4.59375 0 L 1.5 0 L 1.5 -15.4375 L 4.734375 -15.4375 L 4.734375 -10 C 5.554688 -10.90625 6.679688 -11.359375 8.109375 -11.359375 Z M 7.546875 -2.5 C 8.378906 -2.5 9.0625 -2.78125 9.59375 -3.34375 C 10.125 -3.90625 10.390625 -4.65625 10.390625 -5.59375 C 10.390625 -6.539062 10.125 -7.289062 9.59375 -7.84375 C 9.0625 -8.40625 8.378906 -8.6875 7.546875 -8.6875 C 6.710938 -8.6875 6.03125 -8.40625 5.5 -7.84375 C 4.96875 -7.289062 4.703125 -6.539062 4.703125 -5.59375 C 4.703125 -4.65625 4.96875 -3.90625 5.5 -3.34375 C 6.03125 -2.78125 6.710938 -2.5 7.546875 -2.5 Z M 7.546875 -2.5 "/></g></g></g><g fill="#131313" fill-opacity="1"><g transform="translate(15.291774, 20.225755)"><g><path d="M 1.5 -11.1875 L 4.734375 -11.1875 L 4.734375 0 L 1.5 0 Z M 3.125 -12.75 C 2.519531 -12.75 2.03125 -12.921875 1.65625 -13.265625 C 1.289062 -13.609375 1.109375 -14.039062 1.109375 -14.5625 C 1.109375 -15.070312 1.289062 -15.5 1.65625 -15.84375 C 2.03125 -16.1875 2.519531 -16.359375 3.125 -16.359375 C 3.71875 -16.359375 4.203125 -16.191406 4.578125 -15.859375 C 4.953125 -15.535156 5.140625 -15.125 5.140625 -14.625 C 5.140625 -14.082031 4.953125 -13.632812 4.578125 -13.28125 C 4.203125 -12.925781 3.71875 -12.75 3.125 -12.75 Z M 3.125 -12.75 "/></g></g></g><g fill="#131313" fill-opacity="1"><g transform="translate(20.927724, 20.225755)"><g><path d="M 5.265625 0.171875 C 4.335938 0.171875 3.425781 0.0546875 2.53125 -0.171875 C 1.644531 -0.398438 0.941406 -0.691406 0.421875 -1.046875 L 1.5 -3.375 C 2 -3.050781 2.601562 -2.785156 3.3125 -2.578125 C 4.019531 -2.378906 4.710938 -2.28125 5.390625 -2.28125 C 6.753906 -2.28125 7.4375 -2.625 7.4375 -3.3125 C 7.4375 -3.625 7.25 -3.847656 6.875 -3.984375 C 6.507812 -4.128906 5.9375 -4.25 5.15625 -4.34375 C 4.238281 -4.476562 3.484375 -4.632812 2.890625 -4.8125 C 2.296875 -5 1.78125 -5.320312 1.34375 -5.78125 C 0.90625 -6.238281 0.6875 -6.890625 0.6875 -7.734375 C 0.6875 -8.441406 0.890625 -9.066406 1.296875 -9.609375 C 1.703125 -10.160156 2.296875 -10.585938 3.078125 -10.890625 C 3.867188 -11.203125 4.796875 -11.359375 5.859375 -11.359375 C 6.648438 -11.359375 7.4375 -11.269531 8.21875 -11.09375 C 9.007812 -10.914062 9.660156 -10.675781 10.171875 -10.375 L 9.09375 -8.0625 C 8.101562 -8.625 7.023438 -8.90625 5.859375 -8.90625 C 5.171875 -8.90625 4.648438 -8.804688 4.296875 -8.609375 C 3.953125 -8.410156 3.78125 -8.160156 3.78125 -7.859375 C 3.78125 -7.515625 3.96875 -7.269531 4.34375 -7.125 C 4.71875 -6.988281 5.316406 -6.859375 6.140625 -6.734375 C 7.046875 -6.585938 7.789062 -6.425781 8.375 -6.25 C 8.957031 -6.070312 9.460938 -5.753906 9.890625 -5.296875 C 10.328125 -4.835938 10.546875 -4.203125 10.546875 -3.390625 C 10.546875 -2.691406 10.335938 -2.070312 9.921875 -1.53125 C 9.503906 -1 8.894531 -0.582031 8.09375 -0.28125 C 7.300781 0.0195312 6.359375 0.171875 5.265625 0.171875 Z M 5.265625 0.171875 "/></g></g></g><g fill="#131313" fill-opacity="1"><g transform="translate(31.34705, 20.225755)"><g><path d="M 15.828125 -11.359375 C 17.222656 -11.359375 18.332031 -10.941406 19.15625 -10.109375 C 19.988281 -9.285156 20.40625 -8.050781 20.40625 -6.40625 L 20.40625 0 L 17.15625 0 L 17.15625 -5.90625 C 17.15625 -6.789062 16.972656 -7.453125 16.609375 -7.890625 C 16.242188 -8.328125 15.71875 -8.546875 15.03125 -8.546875 C 14.269531 -8.546875 13.664062 -8.300781 13.21875 -7.8125 C 12.78125 -7.320312 12.5625 -6.585938 12.5625 -5.609375 L 12.5625 0 L 9.3125 0 L 9.3125 -5.90625 C 9.3125 -7.664062 8.609375 -8.546875 7.203125 -8.546875 C 6.453125 -8.546875 5.851562 -8.300781 5.40625 -7.8125 C 4.957031 -7.320312 4.734375 -6.585938 4.734375 -5.609375 L 4.734375 0 L 1.5 0 L 1.5 -11.1875 L 4.59375 -11.1875 L 4.59375 -9.90625 C 5.007812 -10.375 5.519531 -10.734375 6.125 -10.984375 C 6.726562 -11.234375 7.390625 -11.359375 8.109375 -11.359375 C 8.898438 -11.359375 9.613281 -11.203125 10.25 -10.890625 C 10.882812 -10.578125 11.398438 -10.125 11.796875 -9.53125 C 12.253906 -10.101562 12.832031 -10.550781 13.53125 -10.875 C 14.226562 -11.195312 14.992188 -11.359375 15.828125 -11.359375 Z M 15.828125 -11.359375 "/></g></g></g><g clip-path="url(#6f5ebc640e)"><g fill="#131313" fill-opacity="1"><g transform="translate(52.664153, 20.225755)"><g><path d="M 12.453125 -5.546875 C 12.453125 -5.503906 12.429688 -5.210938 12.390625 -4.671875 L 3.9375 -4.671875 C 4.082031 -3.984375 4.4375 -3.4375 5 -3.03125 C 5.570312 -2.632812 6.285156 -2.4375 7.140625 -2.4375 C 7.710938 -2.4375 8.222656 -2.519531 8.671875 -2.6875 C 9.128906 -2.863281 9.550781 -3.140625 9.9375 -3.515625 L 11.671875 -1.640625 C 10.617188 -0.429688 9.078125 0.171875 7.046875 0.171875 C 5.785156 0.171875 4.671875 -0.0703125 3.703125 -0.5625 C 2.734375 -1.0625 1.984375 -1.75 1.453125 -2.625 C 0.929688 -3.5 0.671875 -4.488281 0.671875 -5.59375 C 0.671875 -6.6875 0.925781 -7.671875 1.4375 -8.546875 C 1.957031 -9.429688 2.671875 -10.117188 3.578125 -10.609375 C 4.492188 -11.109375 5.515625 -11.359375 6.640625 -11.359375 C 7.734375 -11.359375 8.722656 -11.117188 9.609375 -10.640625 C 10.492188 -10.171875 11.1875 -9.492188 11.6875 -8.609375 C 12.195312 -7.734375 12.453125 -6.710938 12.453125 -5.546875 Z M 6.65625 -8.90625 C 5.914062 -8.90625 5.296875 -8.695312 4.796875 -8.28125 C 4.304688 -7.863281 4.003906 -7.296875 3.890625 -6.578125 L 9.40625 -6.578125 C 9.289062 -7.273438 8.984375 -7.835938 8.484375 -8.265625 C 7.984375 -8.691406 7.375 -8.90625 6.65625 -8.90625 Z M 6.65625 -8.90625 "/></g></g></g></g></g></g></g></svg>