<svg xmlns="http://www.w3.org/2000/svg" xmlns:xlink="http://www.w3.org/1999/xlink" width="150" zoomAndPan="magnify" viewBox="0 0 112.5 30.000001" height="40" preserveAspectRatio="xMidYMid meet" version="1.0"><defs><g/><clipPath id="d61e11ee5f"><path d="M 1.574219 0 L 110.445312 0 L 110.445312 29.03125 L 1.574219 29.03125 Z M 1.574219 0 " clip-rule="nonzero"/></clipPath><clipPath id="8442c3c8c5"><path d="M 4.441406 4.914062 L 26.941406 4.914062 L 26.941406 28.140625 L 4.441406 28.140625 Z M 4.441406 4.914062 " clip-rule="nonzero"/></clipPath><clipPath id="f24bbdc134"><path d="M 30 4 L 106 4 L 106 29.03125 L 30 29.03125 Z M 30 4 " clip-rule="nonzero"/></clipPath><clipPath id="bc1afbb679"><rect x="0" width="76" y="0" height="26"/></clipPath></defs><g clip-path="url(#d61e11ee5f)"><path fill="#ffffff" d="M 1.574219 0 L 110.445312 0 L 110.445312 29.03125 L 1.574219 29.03125 Z M 1.574219 0 " fill-opacity="1" fill-rule="nonzero"/><path fill="#ffffff" d="M 1.574219 0 L 110.445312 0 L 110.445312 29.03125 L 1.574219 29.03125 Z M 1.574219 0 " fill-opacity="1" fill-rule="nonzero"/></g><g clip-path="url(#8442c3c8c5)"><path fill="#ff5400" d="M 11.210938 8.179688 C 9.285156 8.175781 7.722656 9.738281 7.722656 11.664062 L 7.722656 28.296875 L 4.457031 28.296875 L 4.457031 11.664062 C 4.457031 10.753906 4.632812 9.867188 4.984375 9.035156 C 5.324219 8.230469 5.804688 7.511719 6.425781 6.890625 C 7.042969 6.273438 7.765625 5.785156 8.570312 5.445312 C 9.402344 5.09375 10.285156 4.914062 11.195312 4.914062 C 12.105469 4.914062 12.992188 5.09375 13.824219 5.445312 C 14.628906 5.785156 15.347656 6.273438 15.96875 6.890625 C 16.585938 7.511719 17.074219 8.230469 17.414062 9.035156 C 17.765625 9.867188 17.945312 10.753906 17.945312 11.664062 L 17.945312 19.929688 L 19.902344 19.929688 C 20.804688 19.929688 21.535156 20.660156 21.535156 21.5625 C 21.535156 22.464844 20.804688 23.195312 19.902344 23.195312 L 14.679688 23.195312 L 14.679688 11.695312 C 14.679688 9.769531 13.136719 8.183594 11.210938 8.179688 Z M 26.359375 18.917969 C 26.019531 18.113281 25.53125 17.390625 24.914062 16.773438 C 24.292969 16.152344 23.574219 15.671875 22.769531 15.332031 C 21.9375 14.980469 21.050781 14.808594 20.140625 14.808594 L 19.800781 14.808594 L 19.800781 18.074219 L 20.140625 18.074219 C 22.066406 18.074219 23.628906 19.636719 23.625 21.5625 C 23.621094 23.488281 22.035156 25.03125 20.109375 25.03125 L 12.84375 25.03125 L 12.84375 11.75 C 12.84375 10.847656 12.113281 10.117188 11.210938 10.117188 C 10.308594 10.117188 9.578125 10.847656 9.578125 11.75 L 9.578125 28.300781 L 20.140625 28.300781 C 21.050781 28.300781 21.9375 28.117188 22.769531 27.765625 C 23.574219 27.425781 24.292969 26.9375 24.914062 26.316406 C 25.53125 25.699219 26.019531 24.976562 26.359375 24.171875 C 26.710938 23.339844 26.890625 22.457031 26.890625 21.542969 C 26.890625 20.632812 26.710938 19.75 26.359375 18.917969 Z M 26.359375 18.917969 " fill-opacity="1" fill-rule="nonzero"/></g><g clip-path="url(#f24bbdc134)"><g transform="matrix(1, 0, 0, 1, 30, 4)"><g clip-path="url(#bc1afbb679)"><g fill="#000000" fill-opacity="1"><g transform="translate(0.689932, 22.873391)"><g><path d="M 9.359375 -13.109375 C 10.554688 -13.109375 11.644531 -12.832031 12.625 -12.28125 C 13.613281 -11.726562 14.390625 -10.953125 14.953125 -9.953125 C 15.515625 -8.953125 15.796875 -7.785156 15.796875 -6.453125 C 15.796875 -5.128906 15.515625 -3.96875 14.953125 -2.96875 C 14.390625 -1.96875 13.613281 -1.191406 12.625 -0.640625 C 11.644531 -0.0859375 10.554688 0.1875 9.359375 0.1875 C 7.585938 0.1875 6.234375 -0.367188 5.296875 -1.484375 L 5.296875 0 L 1.734375 0 L 1.734375 -17.8125 L 5.46875 -17.8125 L 5.46875 -11.546875 C 6.414062 -12.585938 7.710938 -13.109375 9.359375 -13.109375 Z M 8.71875 -2.875 C 9.675781 -2.875 10.460938 -3.195312 11.078125 -3.84375 C 11.691406 -4.5 12 -5.367188 12 -6.453125 C 12 -7.546875 11.691406 -8.414062 11.078125 -9.0625 C 10.460938 -9.707031 9.675781 -10.03125 8.71875 -10.03125 C 7.75 -10.03125 6.957031 -9.707031 6.34375 -9.0625 C 5.726562 -8.414062 5.421875 -7.546875 5.421875 -6.453125 C 5.421875 -5.367188 5.726562 -4.5 6.34375 -3.84375 C 6.957031 -3.195312 7.75 -2.875 8.71875 -2.875 Z M 8.71875 -2.875 "/></g></g></g><g fill="#000000" fill-opacity="1"><g transform="translate(16.527732, 22.873391)"><g><path d="M 1.734375 -12.90625 L 5.46875 -12.90625 L 5.46875 0 L 1.734375 0 Z M 3.59375 -14.71875 C 2.90625 -14.71875 2.34375 -14.914062 1.90625 -15.3125 C 1.476562 -15.707031 1.265625 -16.203125 1.265625 -16.796875 C 1.265625 -17.390625 1.476562 -17.882812 1.90625 -18.28125 C 2.34375 -18.6875 2.90625 -18.890625 3.59375 -18.890625 C 4.28125 -18.890625 4.835938 -18.695312 5.265625 -18.3125 C 5.703125 -17.925781 5.921875 -17.445312 5.921875 -16.875 C 5.921875 -16.25 5.703125 -15.734375 5.265625 -15.328125 C 4.835938 -14.921875 4.28125 -14.71875 3.59375 -14.71875 Z M 3.59375 -14.71875 "/></g></g></g><g fill="#000000" fill-opacity="1"><g transform="translate(23.030751, 22.873391)"><g><path d="M 6.078125 0.1875 C 5.003906 0.1875 3.953125 0.0546875 2.921875 -0.203125 C 1.898438 -0.460938 1.085938 -0.796875 0.484375 -1.203125 L 1.734375 -3.890625 C 2.304688 -3.523438 3 -3.222656 3.8125 -2.984375 C 4.632812 -2.753906 5.4375 -2.640625 6.21875 -2.640625 C 7.800781 -2.640625 8.59375 -3.03125 8.59375 -3.8125 C 8.59375 -4.1875 8.375 -4.453125 7.9375 -4.609375 C 7.507812 -4.765625 6.847656 -4.898438 5.953125 -5.015625 C 4.898438 -5.171875 4.023438 -5.351562 3.328125 -5.5625 C 2.640625 -5.769531 2.046875 -6.140625 1.546875 -6.671875 C 1.046875 -7.203125 0.796875 -7.953125 0.796875 -8.921875 C 0.796875 -9.742188 1.03125 -10.46875 1.5 -11.09375 C 1.96875 -11.726562 2.65625 -12.222656 3.5625 -12.578125 C 4.46875 -12.929688 5.535156 -13.109375 6.765625 -13.109375 C 7.679688 -13.109375 8.585938 -13.003906 9.484375 -12.796875 C 10.390625 -12.597656 11.140625 -12.320312 11.734375 -11.96875 L 10.484375 -9.3125 C 9.347656 -9.945312 8.109375 -10.265625 6.765625 -10.265625 C 5.960938 -10.265625 5.363281 -10.148438 4.96875 -9.921875 C 4.570312 -9.703125 4.375 -9.421875 4.375 -9.078125 C 4.375 -8.671875 4.585938 -8.382812 5.015625 -8.21875 C 5.441406 -8.0625 6.128906 -7.914062 7.078125 -7.78125 C 8.128906 -7.601562 8.992188 -7.410156 9.671875 -7.203125 C 10.347656 -7.003906 10.929688 -6.640625 11.421875 -6.109375 C 11.921875 -5.585938 12.171875 -4.851562 12.171875 -3.90625 C 12.171875 -3.113281 11.929688 -2.40625 11.453125 -1.78125 C 10.972656 -1.15625 10.269531 -0.671875 9.34375 -0.328125 C 8.425781 0.015625 7.335938 0.1875 6.078125 0.1875 Z M 6.078125 0.1875 "/></g></g></g><g fill="#000000" fill-opacity="1"><g transform="translate(35.053051, 22.873391)"><g><path d="M 18.265625 -13.109375 C 19.878906 -13.109375 21.160156 -12.628906 22.109375 -11.671875 C 23.066406 -10.722656 23.546875 -9.296875 23.546875 -7.390625 L 23.546875 0 L 19.796875 0 L 19.796875 -6.8125 C 19.796875 -7.84375 19.582031 -8.609375 19.15625 -9.109375 C 18.738281 -9.609375 18.140625 -9.859375 17.359375 -9.859375 C 16.472656 -9.859375 15.773438 -9.570312 15.265625 -9 C 14.753906 -8.4375 14.5 -7.597656 14.5 -6.484375 L 14.5 0 L 10.75 0 L 10.75 -6.8125 C 10.75 -8.84375 9.929688 -9.859375 8.296875 -9.859375 C 7.441406 -9.859375 6.753906 -9.570312 6.234375 -9 C 5.722656 -8.4375 5.46875 -7.597656 5.46875 -6.484375 L 5.46875 0 L 1.734375 0 L 1.734375 -12.90625 L 5.296875 -12.90625 L 5.296875 -11.421875 C 5.785156 -11.960938 6.375 -12.378906 7.0625 -12.671875 C 7.757812 -12.960938 8.523438 -13.109375 9.359375 -13.109375 C 10.273438 -13.109375 11.097656 -12.925781 11.828125 -12.5625 C 12.566406 -12.207031 13.160156 -11.679688 13.609375 -10.984375 C 14.140625 -11.660156 14.804688 -12.179688 15.609375 -12.546875 C 16.421875 -12.921875 17.304688 -13.109375 18.265625 -13.109375 Z M 18.265625 -13.109375 "/></g></g></g><g fill="#000000" fill-opacity="1"><g transform="translate(59.649709, 22.873391)"><g><path d="M 14.375 -6.40625 C 14.375 -6.363281 14.347656 -6.03125 14.296875 -5.40625 L 4.53125 -5.40625 C 4.707031 -4.601562 5.125 -3.96875 5.78125 -3.5 C 6.4375 -3.039062 7.253906 -2.8125 8.234375 -2.8125 C 8.898438 -2.8125 9.492188 -2.910156 10.015625 -3.109375 C 10.535156 -3.304688 11.019531 -3.625 11.46875 -4.0625 L 13.46875 -1.890625 C 12.25 -0.503906 10.472656 0.1875 8.140625 0.1875 C 6.679688 0.1875 5.390625 -0.09375 4.265625 -0.65625 C 3.148438 -1.226562 2.285156 -2.015625 1.671875 -3.015625 C 1.066406 -4.023438 0.765625 -5.171875 0.765625 -6.453125 C 0.765625 -7.722656 1.0625 -8.863281 1.65625 -9.875 C 2.257812 -10.894531 3.085938 -11.6875 4.140625 -12.25 C 5.191406 -12.820312 6.363281 -13.109375 7.65625 -13.109375 C 8.914062 -13.109375 10.054688 -12.832031 11.078125 -12.28125 C 12.109375 -11.738281 12.914062 -10.957031 13.5 -9.9375 C 14.082031 -8.925781 14.375 -7.75 14.375 -6.40625 Z M 7.6875 -10.265625 C 6.832031 -10.265625 6.117188 -10.023438 5.546875 -9.546875 C 4.972656 -9.066406 4.617188 -8.410156 4.484375 -7.578125 L 10.84375 -7.578125 C 10.71875 -8.398438 10.363281 -9.050781 9.78125 -9.53125 C 9.207031 -10.019531 8.507812 -10.265625 7.6875 -10.265625 Z M 7.6875 -10.265625 "/></g></g></g></g></g></g></svg>