<svg xmlns="http://www.w3.org/2000/svg" xmlns:xlink="http://www.w3.org/1999/xlink" width="65" zoomAndPan="magnify" viewBox="0 0 48.75 57.749998" height="77" preserveAspectRatio="xMidYMid meet" version="1.0"><defs><clipPath id="fbfb04751e"><path d="M 0 0.0234375 L 48.5 0.0234375 L 48.5 57.476562 L 0 57.476562 Z M 0 0.0234375 " clip-rule="nonzero"/></clipPath><clipPath id="8d17e41c29"><path d="M 0 3 L 48.5 3 L 48.5 57 L 0 57 Z M 0 3 " clip-rule="nonzero"/></clipPath><clipPath id="c517c107ca"><path d="M 7 38 L 42 38 L 42 57.390625 L 7 57.390625 Z M 7 38 " clip-rule="nonzero"/></clipPath><clipPath id="707daf0353"><path d="M 6 37 L 43 37 L 43 57.390625 L 6 57.390625 Z M 6 37 " clip-rule="nonzero"/></clipPath><clipPath id="188266c106"><path d="M 30.066406 43 L 39 43 L 39 50.960938 L 30.066406 50.960938 Z M 30.066406 43 " clip-rule="nonzero"/></clipPath><clipPath id="12d7c50050"><path d="M 30.066406 43 L 39 43 L 39 46 L 30.066406 46 Z M 30.066406 43 " clip-rule="nonzero"/></clipPath><clipPath id="7817e280fb"><path d="M 32 41.054688 L 37 41.054688 L 37 50.960938 L 32 50.960938 Z M 32 41.054688 " clip-rule="nonzero"/></clipPath><clipPath id="94e0cb9036"><path d="M 2 0.199219 L 47.808594 0.199219 L 47.808594 22 L 2 22 Z M 2 0.199219 " clip-rule="nonzero"/></clipPath><clipPath id="9a06826a3b"><path d="M 1.738281 0.199219 L 47.808594 0.199219 L 47.808594 22 L 1.738281 22 Z M 1.738281 0.199219 " clip-rule="nonzero"/></clipPath><clipPath id="c37e4f1351"><path d="M 4.351562 4.023438 L 13 4.023438 L 13 13.929688 L 4.351562 13.929688 Z M 4.351562 4.023438 " clip-rule="nonzero"/></clipPath><clipPath id="7ffd5d50e0"><path d="M 4.351562 4.023438 L 13.46875 4.023438 L 13.46875 13.929688 L 4.351562 13.929688 Z M 4.351562 4.023438 " clip-rule="nonzero"/></clipPath></defs><g clip-path="url(#fbfb04751e)"><path fill="#ffffff" d="M 0 0.0234375 L 48.5 0.0234375 L 48.5 57.476562 L 0 57.476562 Z M 0 0.0234375 " fill-opacity="1" fill-rule="nonzero"/><path fill="#ffffff" d="M 0 0.0234375 L 48.5 0.0234375 L 48.5 57.476562 L 0 57.476562 Z M 0 0.0234375 " fill-opacity="1" fill-rule="nonzero"/></g><g clip-path="url(#8d17e41c29)"><path fill="#ffffff" d="M 4.359375 3.363281 L 44.84375 3.363281 C 45.128906 3.363281 45.414062 3.390625 45.695312 3.445312 C 45.976562 3.5 46.246094 3.582031 46.511719 3.691406 C 46.777344 3.800781 47.027344 3.933594 47.265625 4.089844 C 47.503906 4.246094 47.722656 4.425781 47.925781 4.628906 C 48.128906 4.828125 48.308594 5.046875 48.46875 5.28125 C 48.625 5.515625 48.761719 5.765625 48.871094 6.027344 C 48.980469 6.289062 49.0625 6.558594 49.117188 6.835938 C 49.175781 7.117188 49.203125 7.398438 49.203125 7.679688 L 49.203125 52.191406 C 49.203125 52.476562 49.175781 52.757812 49.117188 53.035156 C 49.0625 53.3125 48.980469 53.582031 48.871094 53.84375 C 48.761719 54.105469 48.625 54.355469 48.46875 54.589844 C 48.308594 54.828125 48.128906 55.042969 47.925781 55.246094 C 47.722656 55.445312 47.503906 55.625 47.265625 55.78125 C 47.027344 55.941406 46.777344 56.074219 46.511719 56.179688 C 46.246094 56.289062 45.976562 56.371094 45.695312 56.425781 C 45.414062 56.480469 45.128906 56.507812 44.84375 56.507812 L 4.359375 56.507812 C 4.070312 56.507812 3.789062 56.480469 3.507812 56.425781 C 3.226562 56.371094 2.953125 56.289062 2.691406 56.179688 C 2.425781 56.074219 2.175781 55.941406 1.9375 55.78125 C 1.699219 55.625 1.480469 55.445312 1.277344 55.246094 C 1.074219 55.042969 0.894531 54.828125 0.734375 54.589844 C 0.574219 54.355469 0.441406 54.105469 0.332031 53.84375 C 0.222656 53.582031 0.140625 53.3125 0.0820312 53.035156 C 0.0273438 52.757812 0 52.476562 0 52.191406 L 0 7.679688 C 0 7.398438 0.0273438 7.117188 0.0820312 6.835938 C 0.140625 6.558594 0.222656 6.289062 0.332031 6.027344 C 0.441406 5.765625 0.574219 5.515625 0.734375 5.28125 C 0.894531 5.046875 1.074219 4.828125 1.277344 4.628906 C 1.480469 4.425781 1.699219 4.246094 1.9375 4.089844 C 2.175781 3.933594 2.425781 3.800781 2.691406 3.691406 C 2.953125 3.582031 3.226562 3.5 3.507812 3.445312 C 3.789062 3.390625 4.070312 3.363281 4.359375 3.363281 Z M 4.359375 3.363281 " fill-opacity="1" fill-rule="nonzero"/></g><g clip-path="url(#c517c107ca)"><path fill="#ffffff" d="M 13.957031 38.808594 L 39.679688 38.808594 C 39.96875 38.808594 40.246094 38.863281 40.511719 38.972656 C 40.777344 39.082031 41.011719 39.238281 41.214844 39.441406 C 41.417969 39.640625 41.574219 39.875 41.683594 40.136719 C 41.796875 40.402344 41.851562 40.675781 41.851562 40.960938 L 41.851562 51.136719 C 41.851562 51.714844 41.691406 52.242188 41.367188 52.71875 C 41.046875 53.199219 40.617188 53.546875 40.082031 53.765625 C 39.382812 54.050781 38.910156 54.703125 38.910156 55.453125 L 38.910156 56.992188 C 38.910156 57.234375 38.589844 57.324219 38.460938 57.113281 C 38.078125 56.488281 37.511719 55.707031 36.773438 55.078125 C 36.039062 54.453125 35.128906 53.980469 34.058594 53.980469 L 10.382812 53.980469 C 10 53.980469 9.636719 53.90625 9.285156 53.761719 C 8.933594 53.621094 8.621094 53.414062 8.351562 53.148438 C 8.085938 52.882812 7.878906 52.574219 7.730469 52.226562 C 7.585938 51.878906 7.511719 51.515625 7.511719 51.136719 L 7.511719 42.265625 C 7.816406 42.410156 8.136719 42.496094 8.472656 42.523438 C 8.808594 42.550781 9.140625 42.515625 9.464844 42.417969 C 9.789062 42.324219 10.082031 42.171875 10.347656 41.96875 C 10.617188 41.761719 10.835938 41.519531 11.011719 41.230469 C 11.234375 40.863281 11.644531 40.253906 12.164062 39.738281 C 12.683594 39.222656 13.304688 38.808594 13.957031 38.808594 Z M 13.957031 38.808594 " fill-opacity="1" fill-rule="nonzero"/></g><g clip-path="url(#707daf0353)"><path stroke-linecap="butt" transform="matrix(0.794314, 0, 0, 0.787029, -0.000000000000001221, 0.198591)" fill="none" stroke-linejoin="miter" d="M 17.571185 49.057935 L 49.954687 49.057935 C 50.318601 49.057935 50.667763 49.127421 51.002171 49.266393 C 51.336579 49.405365 51.631645 49.603897 51.887369 49.861988 C 52.143093 50.115115 52.339804 50.412913 52.477502 50.745453 C 52.620117 51.082957 52.688966 51.430387 52.688966 51.792707 L 52.688966 64.722072 C 52.688966 65.456638 52.487337 66.126682 52.079162 66.732203 C 51.675905 67.342688 51.134951 67.784421 50.461217 68.062365 C 49.580936 68.424685 48.985886 69.253554 48.985886 70.206505 L 48.985886 72.16204 C 48.985886 72.469764 48.582629 72.58392 48.420343 72.315902 C 47.938402 71.521776 47.225325 70.529119 46.295867 69.730029 C 45.371327 68.935903 44.225487 68.335345 42.878019 68.335345 L 13.071427 68.335345 C 12.589486 68.335345 12.132133 68.241043 11.689534 68.057401 C 11.246935 67.878723 10.853514 67.615669 10.514188 67.278165 C 10.17978 66.940662 9.919138 66.548562 9.732263 66.106829 C 9.550305 65.665097 9.456868 65.203511 9.456868 64.722072 L 9.456868 53.450445 C 9.840454 53.634087 10.243711 53.743279 10.666639 53.778022 C 11.089567 53.812765 11.507577 53.768095 11.915752 53.644013 C 12.323926 53.524894 12.692759 53.331326 13.027167 53.073235 C 13.366493 52.810181 13.641888 52.502457 13.863188 52.135174 C 14.143501 51.668625 14.659866 50.894352 15.313929 50.239198 C 15.967992 49.584044 16.749918 49.057935 17.571185 49.057935 Z M 17.571185 49.057935 " stroke="#2e3034" stroke-width="0.187" stroke-opacity="1" stroke-miterlimit="4"/></g><g clip-path="url(#188266c106)"><path stroke-linecap="round" transform="matrix(0.794314, 0, 0, 0.787029, -0.000000000000001221, 0.198591)" fill-opacity="1" fill="#0ba0aa" fill-rule="nonzero" stroke-linejoin="round" d="M 48.248221 55.544952 L 38.825778 55.544952 L 38.825778 64.300192 L 48.248221 64.300192 Z M 48.248221 55.544952 " stroke="#2e3034" stroke-width="0.2" stroke-opacity="1" stroke-miterlimit="4"/></g><g clip-path="url(#12d7c50050)"><path stroke-linecap="round" transform="matrix(0.794314, 0, 0, 0.787029, -0.000000000000001221, 0.198591)" fill-opacity="1" fill="#0ba0aa" fill-rule="nonzero" stroke-linejoin="round" d="M 48.91212 55.222339 L 38.186468 55.222339 L 38.186468 57.535231 L 48.91212 57.535231 Z M 48.91212 55.222339 " stroke="#2e3034" stroke-width="0.2" stroke-opacity="1" stroke-miterlimit="4"/></g><g clip-path="url(#7817e280fb)"><path stroke-linecap="round" transform="matrix(0.794314, 0, 0, 0.787029, -0.000000000000001221, 0.198591)" fill-opacity="1" fill="#f6c6c1" fill-rule="nonzero" stroke-linejoin="round" d="M 44.333678 55.222339 L 42.705897 55.222339 L 42.705897 64.295229 L 44.333678 64.295229 Z M 43.532082 54.969211 C 43.532082 54.969211 43.355042 52.298962 42.076422 52.105394 C 40.797803 51.911826 39.829002 54.3488 42.637048 55.187596 L 43.546835 55.187596 L 43.536999 54.969211 Z M 43.699286 54.969211 C 43.699286 54.969211 43.876325 52.298962 45.154945 52.105394 C 46.428647 51.911826 47.402365 54.3488 44.589402 55.187596 L 43.684532 55.187596 L 43.694368 54.969211 Z M 43.699286 54.969211 " stroke="#2e3034" stroke-width="0.2" stroke-opacity="1" stroke-miterlimit="4"/></g><path stroke-linecap="round" transform="matrix(0.794314, 0, 0, 0.787029, -0.000000000000001221, 0.198591)" fill="none" stroke-linejoin="round" d="M 41.481372 57.535231 L 45.312314 57.535231 " stroke="#2e3034" stroke-width="0.2" stroke-opacity="1" stroke-miterlimit="4"/><path stroke-linecap="round" transform="matrix(0.794314, 0, 0, 0.787029, -0.000000000000001221, 0.198591)" fill="none" stroke-linejoin="miter" d="M 14.099241 57.118315 L 32.019587 57.118315 M 14.099241 61.093908 L 32.019587 61.093908 " stroke="#2e3034" stroke-width="0.187" stroke-opacity="1" stroke-miterlimit="4"/><g clip-path="url(#94e0cb9036)"><path fill="#86c0c8" d="M 5.929688 0.796875 L 43.429688 0.796875 C 43.929688 0.796875 44.414062 0.890625 44.878906 1.082031 C 45.34375 1.273438 45.75 1.542969 46.105469 1.894531 C 46.460938 2.246094 46.734375 2.652344 46.925781 3.113281 C 47.121094 3.574219 47.214844 4.050781 47.214844 4.550781 L 47.214844 13.132812 C 47.214844 14.699219 46.246094 16.042969 44.863281 16.601562 C 43.964844 16.96875 43.355469 17.820312 43.355469 18.789062 L 43.355469 20.808594 C 43.355469 21.152344 42.902344 21.277344 42.726562 20.988281 C 42.226562 20.164062 41.484375 19.140625 40.523438 18.320312 C 39.5625 17.5 38.371094 16.882812 36.972656 16.882812 L 5.929688 16.882812 C 5.425781 16.882812 4.945312 16.789062 4.480469 16.597656 C 4.015625 16.40625 3.605469 16.136719 3.253906 15.785156 C 2.898438 15.433594 2.625 15.027344 2.433594 14.566406 C 2.238281 14.105469 2.144531 13.628906 2.144531 13.132812 L 2.144531 4.550781 C 2.144531 4.050781 2.238281 3.574219 2.433594 3.113281 C 2.625 2.652344 2.898438 2.25 3.253906 1.894531 C 3.605469 1.542969 4.015625 1.273438 4.480469 1.082031 C 4.945312 0.894531 5.425781 0.796875 5.929688 0.796875 Z M 5.929688 0.796875 " fill-opacity="1" fill-rule="nonzero"/></g><g clip-path="url(#9a06826a3b)"><path stroke-linecap="butt" transform="matrix(0.794314, 0, 0, 0.787029, -0.000000000000001221, 0.198591)" fill="none" stroke-linejoin="miter" d="M 7.465172 0.76018 L 54.675744 0.76018 C 55.305218 0.76018 55.915021 0.879299 56.500236 1.1225 C 57.08545 1.365701 57.596898 1.708168 58.044415 2.154864 C 58.491932 2.60156 58.836175 3.117742 59.077146 3.70341 C 59.323034 4.289078 59.441061 4.894599 59.441061 5.5299 L 59.441061 16.434244 C 59.441061 18.424522 58.221454 20.131893 56.480565 20.841643 C 55.349478 21.308192 54.582306 22.390189 54.582306 23.621085 L 54.582306 26.187104 C 54.582306 26.623874 54.011845 26.782699 53.790546 26.415416 C 53.161071 25.368162 52.226695 24.06778 51.016924 23.02549 C 49.807154 21.983199 48.307234 21.199 46.546673 21.199 L 7.465172 21.199 C 6.83078 21.199 6.225894 21.079881 5.64068 20.83668 C 5.055465 20.593479 4.5391 20.251012 4.096501 19.804316 C 3.648984 19.35762 3.30474 18.841438 3.063769 18.25577 C 2.817881 17.670102 2.699855 17.064581 2.699855 16.434244 L 2.699855 5.5299 C 2.699855 4.894599 2.817881 4.289078 3.063769 3.70341 C 3.30474 3.117742 3.648984 2.606523 4.096501 2.154864 C 4.5391 1.708168 5.055465 1.365701 5.64068 1.1225 C 6.225894 0.884262 6.83078 0.76018 7.465172 0.76018 Z M 7.465172 0.76018 " stroke="#2e3034" stroke-width="0.185" stroke-opacity="1" stroke-miterlimit="4"/></g><path stroke-linecap="round" transform="matrix(0.794314, 0, 0, 0.787029, -0.000000000000001221, 0.198591)" fill="none" stroke-linejoin="miter" d="M 19.675989 6.904731 L 51.420181 6.904731 M 19.675989 11.222791 L 51.420181 11.222791 M 19.675989 15.540852 L 36.75048 15.540852 " stroke="#2e3034" stroke-width="0.185" stroke-opacity="1" stroke-miterlimit="4"/><path stroke-linecap="butt" transform="matrix(0.794314, 0, 0, 0.787029, -0.000000000000001221, 0.198591)" fill-opacity="1" fill="#0097a2" fill-rule="nonzero" stroke-linejoin="miter" d="M 10.474846 26.435269 L 47.476132 26.435269 C 48.326905 26.723139 49.103913 27.368367 49.743223 28.06819 C 50.279259 28.663785 50.751365 29.309012 51.169375 29.998909 C 51.479195 30.525018 51.902123 30.936971 52.433242 31.239731 C 52.964361 31.537529 53.539739 31.686427 54.149543 31.686427 C 54.754428 31.686427 55.319971 31.527602 55.816666 31.254621 L 55.816666 40.094237 C 55.816666 40.645162 55.713393 41.171271 55.501929 41.682489 C 55.290465 42.188745 54.990481 42.635441 54.601977 43.02754 C 54.213474 43.414677 53.765957 43.717437 53.259427 43.925895 C 52.747979 44.139317 52.221778 44.243546 51.670988 44.243546 L 17.571185 44.243546 C 16.031923 44.243546 14.718879 44.92848 13.661559 45.841725 C 12.604239 46.750006 11.78789 47.886599 11.2371 48.799844 C 11.050225 49.112531 10.568283 48.978523 10.568283 48.611239 L 10.568283 46.367833 C 10.568283 45.2908 9.894549 44.342812 8.90116 43.935822 C 8.124153 43.613208 7.499596 43.106953 7.02749 42.407129 C 6.560302 41.707306 6.329167 40.937996 6.329167 40.094237 L 6.329167 30.579614 C 6.329167 30.028689 6.43244 29.502581 6.643904 28.991362 C 6.855368 28.485107 7.155352 28.038411 7.543856 27.646311 C 7.93236 27.259175 8.379877 26.956414 8.886407 26.747956 C 9.397855 26.539498 9.924056 26.430305 10.474846 26.430305 Z M 10.474846 26.435269 " stroke="#2e3034" stroke-width="0.185" stroke-opacity="1" stroke-miterlimit="4"/><path stroke-linecap="round" transform="matrix(0.794314, 0, 0, 0.787029, -0.000000000000001221, 0.198591)" fill="none" stroke-linejoin="miter" d="M 12.771443 31.840289 L 47.682678 31.840289 M 12.771443 35.289774 L 47.682678 35.289774 M 12.771443 38.744223 L 31.57207 38.744223 " stroke="#2e3034" stroke-width="0.185" stroke-opacity="1" stroke-miterlimit="4"/><g clip-path="url(#c37e4f1351)"><path fill="#2e3034" d="M 12.988281 7.90625 L 12.445312 4.152344 L 8.480469 4.914062 L 4.574219 10.5 L 9.082031 13.492188 Z M 12.988281 7.90625 " fill-opacity="1" fill-rule="nonzero"/></g><g clip-path="url(#7ffd5d50e0)"><path stroke-linecap="butt" transform="matrix(0.794314, 0, 0, 0.787029, -0.000000000000001221, 0.198591)" fill-opacity="1" fill="#ffc3be" fill-rule="nonzero" stroke-linejoin="miter" d="M 16.533536 9.882704 L 15.653255 5.132837 L 10.858432 6.075862 L 5.940664 13.173363 L 11.615768 16.980205 Z M 16.533536 9.882704 " stroke="#2e3034" stroke-width="0.2" stroke-opacity="1" stroke-miterlimit="10"/></g><path fill="#2e3034" d="M 11.144531 8.441406 L 7.558594 10.175781 L 6.996094 9.804688 L 10.578125 8.066406 Z M 8.59375 6.929688 C 8.796875 6.898438 8.992188 6.945312 9.1875 7.074219 C 9.378906 7.199219 9.496094 7.363281 9.539062 7.558594 C 9.578125 7.753906 9.53125 7.953125 9.386719 8.15625 C 9.242188 8.363281 9.070312 8.484375 8.867188 8.519531 C 8.648438 8.554688 8.453125 8.507812 8.273438 8.378906 C 8.082031 8.25 7.964844 8.085938 7.921875 7.890625 C 7.882812 7.695312 7.933594 7.496094 8.078125 7.289062 C 8.21875 7.085938 8.390625 6.964844 8.59375 6.933594 Z M 8.5 7.570312 C 8.351562 7.78125 8.355469 7.9375 8.503906 8.039062 C 8.582031 8.085938 8.65625 8.097656 8.734375 8.074219 C 8.8125 8.050781 8.886719 7.984375 8.960938 7.875 C 9.109375 7.667969 9.105469 7.511719 8.945312 7.40625 C 8.796875 7.308594 8.648438 7.359375 8.5 7.570312 M 9.285156 9.734375 C 9.488281 9.699219 9.683594 9.746094 9.875 9.875 C 10.066406 10.003906 10.183594 10.164062 10.222656 10.355469 C 10.265625 10.550781 10.210938 10.75 10.066406 10.953125 C 9.925781 11.160156 9.753906 11.28125 9.550781 11.320312 C 9.351562 11.355469 9.15625 11.308594 8.964844 11.179688 C 8.769531 11.050781 8.648438 10.886719 8.609375 10.691406 C 8.570312 10.496094 8.621094 10.296875 8.765625 10.089844 C 8.910156 9.886719 9.082031 9.765625 9.285156 9.734375 Z M 9.179688 10.367188 C 9.035156 10.578125 9.039062 10.738281 9.195312 10.839844 C 9.347656 10.941406 9.5 10.886719 9.648438 10.675781 C 9.792969 10.46875 9.789062 10.3125 9.636719 10.210938 C 9.480469 10.105469 9.328125 10.15625 9.179688 10.367188 " fill-opacity="1" fill-rule="nonzero"/><path stroke-linecap="round" transform="matrix(0.794314, 0, 0, 0.787029, -0.000000000000001221, 0.198591)" fill-opacity="1" fill="#86c0c8" fill-rule="nonzero" stroke-linejoin="round" d="M 14.536922 7.247198 C 14.807399 7.247198 15.023781 7.033776 15.023781 6.770722 C 15.023781 6.636713 14.974603 6.522558 14.881166 6.428255 C 14.787728 6.333953 14.669702 6.289283 14.536922 6.289283 C 14.404142 6.289283 14.291034 6.333953 14.192678 6.428255 C 14.099241 6.522558 14.050063 6.636713 14.050063 6.770722 C 14.050063 7.033776 14.266445 7.247198 14.536922 7.247198 " stroke="#2e3034" stroke-width="0.2" stroke-opacity="1" stroke-miterlimit="4"/></svg>